<svg id="Layer_1" data-name="Layer 1" xmlns="http://www.w3.org/2000/svg" viewBox="0 0 70.34 49.43"><defs><style>.cls-1{fill:#231f42;}</style></defs><path class="cls-1" d="M2.39,29.6c.56-1.51,1.68-2,3.22-2q28.76,0,57.49,0h1.08c-.27-.3-.43-.49-.61-.67q-8.52-8.52-17-17a2.62,2.62,0,0,1-.88-2.77A2.45,2.45,0,0,1,49.53,6a6.32,6.32,0,0,1,.6.56L71.59,28c1.53,1.52,1.53,2.76,0,4.29L50,53.86a2.57,2.57,0,0,1-2.64.91A2.47,2.47,0,0,1,46,50.94a5.43,5.43,0,0,1,.68-.76q8.43-8.43,16.88-16.83a2.71,2.71,0,0,1,.7-.42l-.2-.31h-.86q-28.74,0-57.48,0c-1.58,0-2.71-.44-3.3-1.95Z" transform="translate(-2.39 -5.43)"/></svg>